<svg xmlns="http://www.w3.org/2000/svg" viewBox="0 0 170.09823 73.31362396">
  <path fill="#8aced7" d="m142.64 24.83362009h-23.59c-.89 0-1.54.16-2.26.85-2.88 2.82-6.46 4.26-10.45 4.63-8.01.76-16.05.19-24.07.32-5.45.09-10.91.03-16.36 0-1.13 0-1.92.26-2.83 1.12-3.01 2.85-6.78 4.34-10.9 4.37-13.2.11-26.4.03-39.61.08-1.51 0-1.19-.43-.92-1.56.98-4.03 3.44-4.83 7.38-4.74 12.05.29 24.11.12 36.16.09 1.76 0 3.47.38 5.29.14 2.06-.27 3.72-1.09 5.27-2.27 3.02-2.32 6.37-3.42 10.2-3.4 12.17.06 24.34 0 36.51.04 2.27 0 4.29-.58 6.14-1.84.62-.42 1.28-.78 1.86-1.24 2.66-2.09 5.78-2.72 9.03-2.73 12.86-.05 25.72-.02 38.57-.02 2.42 0 2.28.15 1.63 2.41-.9 3.17-2.7 3.95-5.87 3.83-7.05-.27-14.12-.08-21.18-.08z"/>
  <path fill="#003263" d="m16.54 24.08362009c.87-1.94 1.71-3.62 2.39-5.36.4-1.02 1.16-.76 1.85-.76 10.85-.01 21.7 0 32.54 0 3.9 0 7.81-.06 11.71.02 2.05.04 3.89-.44 5.44-1.73 3.77-3.14 8.13-4.09 12.96-4.03 11.08.14 22.16-.03 33.23.09 3.31.03 6.2-.71 8.82-2.71 2.78-2.12 5.9-3.24 9.45-2.98.21.02.42.05.8.1-.83 1.87-1.63 3.62-2.39 5.39-.3.7-.86.62-1.43.62h-7.75c-.57 0-1.09-.02-1.56.47-3.8 3.96-8.66 5.13-13.92 5.14-12.4.03-24.8.02-37.19 0-1.09 0-1.88.24-2.69 1.06-3.33 3.39-7.64 4.61-12.2 4.65-13.26.12-26.51.04-40.03.04zm-4.46 24.37h-.41c-.06-.25-.16-.47-.3-.67-.22.23-.47.43-.76.59-.29.16-.67.25-1.15.25-.53 0-1.02-.13-1.47-.39-.45-.26-.81-.62-1.08-1.08-.27-.46-.4-.98-.4-1.56 0-.41.07-.8.22-1.18.15-.38.35-.7.63-.99.28-.29.59-.51.97-.67.38-.16.79-.24 1.23-.24.74 0 1.34.24 1.82.72.06-.12.13-.31.19-.54h.39l.07 2.17h-.42c-.08-.37-.21-.69-.41-.98-.2-.29-.43-.51-.7-.66-.27-.15-.55-.23-.85-.23-.33 0-.63.09-.89.27-.26.18-.47.46-.62.83-.15.37-.22.83-.22 1.38s.06.99.19 1.34c.13.35.28.63.46.81.18.18.37.31.55.37.18.06.36.1.52.1.36 0 .68-.1.96-.29.28-.19.52-.43.7-.72.18-.29.3-.58.36-.87h.42v2.22zm3.99.06h-2.99v-.4c.25 0 .44-.02.56-.07s.21-.12.25-.21c.04-.09.06-.23.06-.41v-3.7c0-.25-.05-.43-.16-.54-.11-.11-.34-.16-.71-.16v-.4h2.99v.4c-.25 0-.44.02-.56.07-.12.05-.21.12-.25.21-.04.09-.06.23-.06.41v3.7c0 .17.02.3.06.39.04.09.12.17.24.22.12.05.31.08.58.08v.4zm6.5-4.21h-.41c-.04-.36-.12-.63-.24-.81s-.26-.28-.4-.32-.31-.06-.49-.06h-.75v4.31c0 .17.02.3.05.4s.12.17.24.22.31.08.56.08v.4h-2.95v-.4c.36 0 .59-.05.7-.16s.16-.28.16-.54v-4.31h-.63c-.25 0-.45.02-.61.06-.16.04-.3.15-.43.32-.13.17-.19.44-.21.81h-.41v-1.67h5.82zm6.69-1.27c-.16.01-.29.05-.4.11s-.21.16-.32.3-.26.36-.47.68l-1.24 1.91v1.39c0 .16.02.29.05.38s.11.17.23.23.31.08.57.08v.4h-2.96v-.4c.25 0 .43-.02.56-.07.13-.05.21-.12.25-.21.04-.09.06-.23.06-.41v-1.32l-1.48-2.46s-.02-.04-.04-.06-.02-.04-.03-.04c-.13-.21-.24-.34-.34-.41-.1-.07-.25-.1-.44-.11v-.4h2.76v.4c-.14 0-.25 0-.33.01-.08.01-.15.03-.2.07s-.08.1-.08.18c0 .05.02.12.05.2.03.08.11.22.24.44l.92 1.55.87-1.38c.19-.3.28-.52.28-.66 0-.18-.06-.3-.18-.34-.12-.04-.28-.07-.49-.07v-.4h2.14v.4zm9.85 2.54c0 .54-.13 1.04-.38 1.5s-.63.84-1.13 1.12-1.09.42-1.77.42c-.56 0-1.04-.09-1.47-.27-.43-.18-.77-.42-1.04-.72-.27-.3-.47-.63-.59-.99-.12-.36-.19-.72-.19-1.08 0-.52.12-1.02.37-1.48.25-.46.62-.84 1.11-1.13.49-.29 1.09-.43 1.78-.43.63 0 1.16.1 1.6.31.44.21.78.46 1.03.78s.42.64.53.98.16.67.16.98zm-1.41-.02c0-.33-.03-.64-.08-.94-.05-.3-.16-.56-.3-.8-.14-.24-.34-.43-.58-.57-.24-.14-.55-.21-.91-.21-.5 0-.89.12-1.17.37s-.47.56-.57.93-.15.78-.15 1.22c0 .24.02.5.05.76.03.26.11.53.23.81.12.28.32.51.58.7.26.19.61.28 1.03.28.42 0 .76-.1 1.02-.29.26-.19.45-.43.57-.72s.2-.55.23-.81c.03-.26.05-.5.05-.73zm7.17-1.39h-.41c-.07-.33-.17-.57-.29-.72-.12-.15-.25-.24-.4-.28s-.36-.05-.62-.05h-1.05v2.08h.55c.26 0 .44-.04.53-.13.09-.09.15-.29.16-.59h.4v1.96h-.41c-.01-.23-.04-.39-.08-.49-.04-.1-.11-.17-.2-.2-.09-.03-.24-.06-.42-.06h-.53v1.75c0 .24.05.41.14.53.09.12.32.17.67.17h.12v.4h-3.02v-.4c.36 0 .59-.05.69-.16.1-.11.15-.28.15-.54v-3.7c0-.17-.02-.3-.05-.39-.03-.09-.11-.17-.24-.22-.13-.05-.31-.08-.56-.08v-.4h4.82l.04 1.53zm9.78 2.03c-.17.02-.29.04-.38.08-.09.04-.14.1-.18.19-.04.09-.05.23-.05.41v1.38c-.42 0-.87.05-1.36.16-.35.08-.62.13-.79.16-.17.03-.38.05-.63.05-.64 0-1.18-.15-1.64-.45-.46-.3-.79-.68-1.02-1.15-.23-.47-.34-.95-.34-1.45 0-.57.13-1.08.4-1.55.27-.47.63-.83 1.09-1.1s.96-.4 1.51-.4c.67 0 1.27.23 1.82.69.07-.12.12-.3.16-.51h.42l.04 1.93h-.4c-.06-.29-.18-.56-.34-.8-.16-.24-.38-.44-.63-.58-.25-.14-.53-.21-.83-.21-.22 0-.44.04-.65.12-.21.08-.41.21-.59.4s-.33.45-.44.77-.17.73-.17 1.21c0 .41.04.81.13 1.18s.26.7.53.98c.27.28.64.41 1.13.41.38 0 .67-.06.87-.18.2-.12.32-.27.38-.44.06-.17.09-.37.09-.58 0-.2-.02-.35-.05-.44-.03-.09-.1-.16-.21-.2-.11-.04-.28-.07-.51-.07v-.4h2.62v.4zm6.88 2.32h-1.58c-.06-.06-.13-.16-.21-.28s-.18-.26-.28-.43c-.1-.17-.19-.3-.25-.41l-.4-.66c-.18-.3-.31-.5-.41-.61-.1-.11-.2-.18-.31-.21s-.32-.05-.6-.05h-.22v1.54c0 .16.02.29.05.39.03.1.12.17.25.23.13.06.32.08.56.08v.4h-2.95v-.4c.36 0 .59-.05.69-.16.1-.11.15-.28.15-.54v-3.72c0-.25-.05-.43-.15-.54s-.33-.16-.7-.16v-.41l1.36-.04c.1 0 .22-.01.36-.01h.83c.29 0 .57.03.82.05s.46.06.6.1c.22.05.42.15.62.27.2.12.35.3.48.5.13.2.18.45.18.72 0 .2-.04.39-.13.57-.09.18-.22.35-.41.49-.19.14-.44.26-.75.34.21.12.39.28.54.46.15.18.38.52.69 1.01.18.28.33.49.45.64.12.15.23.24.33.29.1.05.23.08.38.1v.4zm-2.44-4.32c0-.47-.14-.78-.43-.93-.29-.15-.66-.23-1.12-.23h-.27v2.37h.27c.44 0 .8-.07 1.1-.21s.44-.47.44-.99zm8.21 2.39-.05 1.94h-5.24v-.4c.36 0 .59-.05.7-.16s.16-.28.16-.54v-3.7c0-.17-.02-.3-.05-.39s-.11-.17-.23-.22c-.12-.05-.31-.08-.57-.08v-.4h4.88l.08 1.53h-.4c-.09-.34-.19-.58-.31-.73-.12-.15-.25-.24-.39-.27-.14-.03-.37-.05-.66-.05h-1.1v2.08h.6c.21 0 .36-.02.46-.05.1-.03.17-.1.21-.21.04-.11.07-.26.08-.48h.42v1.96h-.4c-.01-.22-.04-.38-.09-.48-.05-.1-.12-.17-.22-.21-.1-.04-.25-.05-.46-.05h-.61v1.38c0 .23 0 .4.02.51s.04.2.09.27.13.12.25.15c.12.03.28.05.49.05h.47c.2 0 .39-.03.57-.08.18-.05.36-.18.53-.39.17-.21.3-.54.36-.99h.41zm6.63 1.93h-2.77v-.4c.23 0 .41-.02.51-.05.1-.03.16-.11.16-.24 0-.09-.02-.18-.05-.26l-.28-.69h-1.91l-.14.38c-.08.21-.12.37-.12.46 0 .17.07.28.2.33.13.05.29.07.47.07v.4h-2.03v-.4c.16 0 .3-.03.41-.09s.22-.18.32-.35c.1-.17.21-.41.33-.72l1.7-4.44h.41l1.79 4.58c.13.32.23.54.29.66s.14.2.25.26.26.09.45.09v.4zm-2.59-2.07-.81-2.05-.77 2.05zm8.58-2.14h-.41c-.04-.36-.12-.63-.24-.81s-.26-.28-.4-.32-.31-.06-.49-.06h-.75v4.31c0 .17.02.3.05.4.03.1.12.17.24.22.12.05.31.08.56.08v.4h-2.95v-.4c.36 0 .59-.05.7-.16.11-.11.16-.28.16-.54v-4.31h-.63c-.25 0-.45.02-.61.06-.16.04-.3.15-.43.32-.13.17-.19.44-.21.81h-.41v-1.67h5.82zm6.01 2.28-.05 1.94h-5.24v-.4c.36 0 .59-.05.7-.16s.16-.28.16-.54v-3.7c0-.17-.02-.3-.05-.39s-.11-.17-.23-.22c-.12-.05-.31-.08-.57-.08v-.4h4.88l.08 1.53h-.4c-.09-.34-.19-.58-.31-.73-.12-.15-.25-.24-.39-.27-.14-.03-.37-.05-.66-.05h-1.1v2.08h.6c.21 0 .36-.02.46-.05.1-.03.17-.1.21-.21.04-.11.07-.26.08-.48h.42v1.96h-.4c-.01-.22-.04-.38-.09-.48-.05-.1-.12-.17-.22-.21-.1-.04-.25-.05-.46-.05h-.61v1.38c0 .23 0 .4.02.51s.04.2.09.27.13.12.25.15c.12.03.28.05.49.05h.47c.2 0 .39-.03.57-.08.18-.05.36-.18.53-.39.17-.21.3-.54.36-.99h.41zm7.17 1.93h-1.58c-.06-.06-.13-.16-.21-.28-.08-.12-.18-.26-.28-.43-.1-.17-.19-.3-.25-.41l-.4-.66c-.18-.3-.31-.5-.41-.61-.1-.11-.2-.18-.31-.21s-.32-.05-.6-.05h-.22v1.54c0 .16.02.29.05.39.03.1.12.17.25.23.13.06.32.08.56.08v.4h-2.95v-.4c.36 0 .59-.05.69-.16.1-.11.15-.28.15-.54v-3.72c0-.25-.05-.43-.15-.54-.1-.11-.33-.16-.7-.16v-.41l1.36-.04c.1 0 .22-.01.36-.01h.83c.29 0 .57.03.82.05s.46.06.6.1c.22.05.42.15.62.27.2.12.35.3.48.5s.18.45.18.72c0 .2-.04.39-.13.57s-.22.35-.41.49c-.19.14-.44.26-.75.34.21.12.39.28.54.46.15.18.38.52.69 1.01.18.28.33.49.45.64.12.15.23.24.33.29.1.05.23.08.38.1v.4zm-2.44-4.32c0-.47-.14-.78-.43-.93-.29-.15-.66-.23-1.12-.23h-.27v2.37h.27c.44 0 .8-.07 1.1-.21.3-.14.44-.47.44-.99zm-70.16 21.31c-.54.06-.95.14-1.22.26-.27.12-.46.32-.56.6-.1.28-.15.72-.15 1.32v4.43c-1.35 0-2.81.18-4.38.53-1.13.25-1.98.43-2.55.52-.57.1-1.24.15-2.01.15-2.05-1e-14-3.8-.48-5.26-1.44s-2.55-2.19-3.28-3.69c-.73-1.51-1.09-3.05-1.09-4.64 0-1.82.43-3.48 1.3-4.98.86-1.5 2.04-2.68 3.51-3.54 1.48-.86 3.1-1.29 4.85-1.29 2.14 0 4.08.74 5.84 2.22.21-.4.39-.95.52-1.65h1.35l.14 6.19h-1.28c-.2-.94-.56-1.8-1.1-2.58-.54-.78-1.21-1.4-2.01-1.85s-1.69-.68-2.66-.68c-.71 0-1.4.12-2.08.37-.68.25-1.31.67-1.9 1.28-.59.61-1.06 1.44-1.42 2.49-.36 1.05-.54 2.35-.54 3.89 0 1.32.14 2.59.42 3.81.28 1.22.85 2.26 1.7 3.14.85.87 2.06 1.31 3.62 1.31 1.23 0 2.16-.19 2.79-.58.63-.39 1.04-.86 1.23-1.42.19-.56.29-1.18.29-1.87 0-.65-.05-1.12-.15-1.42-.1-.3-.33-.52-.68-.66-.36-.14-.91-.21-1.65-.21v-1.28h8.42v1.28zm18.64 1.24-.15 6.22h-16.84v-1.28c1.16 0 1.91-.17 2.24-.5.33-.33.5-.91.5-1.73v-11.88c0-.54-.05-.96-.16-1.26-.11-.3-.36-.54-.75-.71-.4-.17-1.01-.26-1.83-.26v-1.28h15.68l.25 4.91h-1.28c-.29-1.09-.62-1.87-1-2.34-.38-.47-.8-.76-1.27-.86-.47-.11-1.17-.16-2.11-.16h-3.54v6.68h1.92c.66 0 1.15-.06 1.48-.17.33-.12.55-.34.68-.66.13-.33.22-.84.26-1.53h1.34v6.29h-1.28c-.04-.7-.13-1.21-.28-1.54-.15-.33-.38-.55-.7-.66-.32-.11-.81-.17-1.47-.17h-1.95v4.45c0 .74.02 1.29.06 1.63s.14.63.3.86c.16.23.43.39.79.49.37.1.89.15 1.57.15h1.52c.64 0 1.25-.08 1.83-.24.58-.16 1.15-.58 1.71-1.26.56-.67.95-1.73 1.17-3.17h1.31zm19.59 0-.15 6.22h-16.84v-1.28c1.16 0 1.91-.17 2.24-.5.33-.33.5-.91.5-1.73v-11.88c0-.54-.05-.96-.16-1.26-.11-.3-.36-.54-.75-.71-.4-.17-1.01-.26-1.83-.26v-1.28h15.68l.25 4.91h-1.28c-.29-1.09-.62-1.87-1-2.34-.38-.47-.8-.76-1.27-.86-.47-.11-1.17-.16-2.11-.16h-3.54v6.68h1.92c.66 0 1.15-.06 1.48-.17.33-.12.55-.34.68-.66.13-.33.22-.84.26-1.53h1.34v6.29h-1.28c-.04-.7-.13-1.21-.28-1.54-.15-.33-.38-.55-.7-.66-.32-.11-.81-.17-1.47-.17h-1.95v4.45c0 .74.02 1.29.06 1.63s.14.63.3.86c.16.23.43.39.79.49.37.1.89.15 1.57.15h1.52c.64 0 1.25-.08 1.83-.24.58-.16 1.15-.58 1.71-1.26.56-.67.95-1.73 1.17-3.17h1.31zm19.55-.1-.13 6.32h-16.84v-1.28c1.16 0 1.91-.17 2.24-.5.33-.33.5-.91.5-1.73v-11.88c0-.55-.06-.97-.17-1.28-.11-.3-.37-.54-.77-.7-.4-.17-1.01-.25-1.81-.25v-1.28h9.51v1.28c-.79 0-1.39.08-1.79.24-.4.16-.67.39-.79.69-.12.3-.19.74-.19 1.3v10.87c0 .86.04 1.47.13 1.84.08.37.31.65.68.84.37.19.98.29 1.83.29 1.07 0 2.01-.08 2.81-.24.8-.16 1.55-.59 2.23-1.3.68-.7 1.11-1.78 1.28-3.23zm23.58-3.13c0 1.72-.41 3.33-1.23 4.83-.82 1.5-2.03 2.7-3.63 3.61-1.6.91-3.5 1.36-5.68 1.36-1.78 0-3.36-.29-4.71-.86-1.36-.58-2.47-1.35-3.33-2.31-.86-.97-1.5-2.03-1.91-3.18-.41-1.15-.62-2.31-.62-3.47 0-1.68.39-3.27 1.18-4.77.79-1.5 1.98-2.7 3.57-3.62 1.59-.92 3.49-1.37 5.7-1.37 2.02 0 3.73.33 5.14.99 1.41.66 2.51 1.49 3.3 2.5.79 1 1.35 2.06 1.69 3.16.34 1.1.51 2.15.51 3.14zm-4.52-.06c0-1.06-.09-2.06-.27-3.01-.18-.95-.5-1.81-.95-2.57-.46-.77-1.08-1.38-1.87-1.83-.79-.45-1.77-.68-2.93-.68-1.6 0-2.85.4-3.74 1.19-.9.79-1.51 1.79-1.83 2.98-.32 1.19-.48 2.5-.48 3.91 0 .78.05 1.59.15 2.44.1.85.35 1.71.74 2.6.39.89 1.01 1.64 1.87 2.24.86.61 1.96.91 3.32.91 1.36 0 2.44-.31 3.28-.94.84-.63 1.45-1.39 1.84-2.3.39-.91.63-1.77.73-2.6.1-.83.15-1.61.15-2.36zm27.96-8.11c-.9 0-1.55.09-1.94.27-.39.18-.63.45-.73.8-.09.35-.14.93-.14 1.73v14.99h-1.28l-12.37-14.69v10.41c0 .79.05 1.36.15 1.72s.35.63.75.82c.4.19 1.05.29 1.94.29v1.28h-7.03v-1.28c.84 0 1.44-.1 1.82-.29.38-.19.61-.46.7-.82s.13-.93.13-1.72v-9.65c0-.78-.02-1.37-.06-1.76-.04-.39-.14-.73-.3-1.02-.16-.29-.42-.53-.77-.71-.36-.18-.85-.3-1.48-.37v-1.28h5.51l10.76 12.71v-8.63c0-.71-.05-1.25-.15-1.62-.1-.37-.34-.67-.72-.87-.39-.2-1-.31-1.83-.31v-1.28h7.05v1.28zm23.21 10.16c-.54.06-.95.14-1.22.26-.27.12-.46.32-.56.6-.1.28-.15.72-.15 1.32v4.43c-1.35 0-2.81.18-4.38.53-1.13.25-1.98.43-2.55.52-.57.1-1.24.15-2.01.15-2.05 0-3.8-.48-5.26-1.44s-2.55-2.19-3.28-3.69c-.73-1.51-1.09-3.05-1.09-4.64 0-1.82.43-3.48 1.3-4.98.86-1.5 2.04-2.68 3.51-3.54 1.48-.86 3.1-1.29 4.85-1.29 2.14 0 4.08.74 5.84 2.22.21-.4.39-.95.52-1.65h1.35l.14 6.19h-1.28c-.2-.94-.56-1.8-1.1-2.58s-1.21-1.4-2.01-1.85-1.69-.68-2.66-.68c-.71 0-1.4.12-2.08.37s-1.31.67-1.9 1.28c-.59.61-1.06 1.44-1.42 2.49s-.54 2.35-.54 3.89c0 1.32.14 2.59.42 3.81.28 1.22.85 2.26 1.7 3.14.85.87 2.06 1.31 3.62 1.31 1.23 0 2.16-.19 2.79-.58.63-.39 1.04-.86 1.23-1.42.19-.56.29-1.18.29-1.87 0-.65-.05-1.12-.15-1.42-.1-.3-.33-.52-.68-.66-.36-.14-.91-.21-1.65-.21v-1.28h8.42v1.28zm-60.21-65.41c-.75 1.66-1.54 3.31-2.23 4.99-.35.86-.79 1.26-1.78 1.17-1.14-.1-2.3.02-3.44-.03-3.14-.14-6-.04-8.58 2.49-2.31 2.26-5.69 2.99-8.93 3.02-13.65.09-27.31.04-41.23.04.86-1.92 1.63-3.77 2.51-5.56.38-.77 1.24-.4 1.88-.4 13.72-.02 27.43-.11 41.15.04 3.9.04 7.36-.52 10.34-3.18 1.55-1.39 3.15-2.11 5.49-2.58 1.81-.17 3.2-.07 4.82 6e-16z"/>
</svg>
