<svg xmlns="http://www.w3.org/2000/svg" data-name="Logo" viewBox="0 0 500 500"><g data-name="Logo"><path fill="#0866ff" d="M500,250C500,111.92877197265625,388.07122802734375,0,250,0,111.928833007813409,0,0,111.92877197265625,0,250c0,117.24462890625,80.715454101563409,215.6221923828125,189.60565185546875,242.63800048828125v-166.2415771484375h-51.5521240234375v-76.39642333984375h51.5521240234375v-32.91876220703125c0-85.0919189453125,38.508728027342841-124.5323486328125,122.04791259765625-124.5323486328125,15.83819580078125,0,43.16705322265625,3.105529785157159,54.34698486328125,6.2110595703125v69.253662109375c-5.9005126953125-.62109375-16.1488037109375-.931640625-28.881591796875-.931640625-40.9931640625,0-56.831481933595569,15.5277099609375-56.831481933595569,55.899841308594659v27.018188476561591h81.658996582033069l-14.0289306640625,76.39642333984375h-67.630065917970569v171.7725830078125c123.785766601564319-14.95123291015625,219.712524414064319-120.35101318359375,219.712524414064319-248.16900634765625Z" data-name="Initiator"/><path fill="#fff" d="M347.917513671874985,326.39642333984375l14.0289306640625-76.39642333984375h-81.658996582033069v-27.018188476561591c0-40.372131347657159,15.838317871095569-55.899841308594659,56.831481933595569-55.899841308594659,12.7327880859375,0,22.9810791015625.310546875,28.881591796875.931640625v-69.253662109375c-11.179931640625-3.105529785155341-38.5087890625-6.2110595703125-54.34698486328125-6.2110595703125-83.539184570313409,0-122.047912597655341,39.4404296875-122.047912597655341,124.5323486328125v32.91876220703125h-51.55213003717563v76.39642333984375h51.55213003717563v166.2415771484375c19.342529296875,4.79888916015625,39.567810058591931,7.36199951171875,60.394348144530341,7.36199951171875,10.253173828125,0,20.357788085935681-.63165283203125,30.287475585935681-1.83099365234375v-171.7725830078125h67.630065917970569Z" data-name="F"/></g></svg>