<svg xmlns="http://www.w3.org/2000/svg" viewBox="0 0 771.58 771.58">
  <defs>
    <linearGradient id="e" x1="216.87" x2="473.13" gradientTransform="translate(40.79 .0002)" gradientUnits="userSpaceOnUse">
      <stop offset="0" stop-color="#cd3b55"/>
      <stop offset=".2" stop-color="#f77b28"/>
      <stop offset=".4" stop-color="#f0ce64"/>
      <stop offset=".6" stop-color="#639c5c"/>
      <stop offset=".8" stop-color="#4f7fd4"/>
      <stop offset="1" stop-color="#a77cc6"/>
    </linearGradient>
    <linearGradient id="b" x1="184.2" x2="505.8" gradientTransform="translate(40.79 .0002)" gradientUnits="userSpaceOnUse">
      <stop offset=".1512" stop-color="#cd3b55"/>
      <stop offset=".1512" stop-color="#f77b28"/>
      <stop offset=".26" stop-color="#f77b28"/>
      <stop offset=".26" stop-color="#f0ce64"/>
      <stop offset=".39" stop-color="#f0ce64"/>
      <stop offset=".39" stop-color="#639c5c"/>
      <stop offset=".5285" stop-color="#639c5c"/>
      <stop offset=".5285" stop-color="#4f7fd4"/>
      <stop offset=".6385" stop-color="#4f7fd4"/>
      <stop offset=".6385" stop-color="#a77cc6"/>
      <stop offset=".765" stop-color="#a77cc6"/>
      <stop offset=".765" stop-color="#7b2d21"/>
      <stop offset=".9038" stop-color="#7b2d21"/>
      <stop offset=".9038" stop-color="#3e3e3e"/>
    </linearGradient>
    <filter id="d" width="1.0048" height="1.0198" x="0" y="0" color-interpolation-filters="sRGB">
      <feFlood flood-color="#fcc59b" flood-opacity="1" result="flood"/>
      <feGaussianBlur in="SourceGraphic" result="blur"/>
      <feOffset dx="5" dy="5" in="blur" result="offset"/>
      <feComposite in="flood" in2="offset" operator="in" result="comp1"/>
      <feComposite in="SourceGraphic" in2="comp1" result="comp2"/>
    </filter>
    <filter id="c" width="1.0016" height="1.0083" x="0" y="0" color-interpolation-filters="sRGB">
      <feFlood flood-color="#f1a5ad" flood-opacity="1" result="flood"/>
      <feGaussianBlur in="SourceGraphic" result="blur"/>
      <feOffset dx="3" dy="3" in="blur" result="offset"/>
      <feComposite in="flood" in2="offset" operator="in" result="comp1"/>
      <feComposite in="SourceGraphic" in2="comp1" result="comp2"/>
    </filter>
    <clipPath id="a">
      <path fill-rule="evenodd" d="M19.93 0h687.61v498H19.93z"/>
    </clipPath>
  </defs>
  <path fill="#fff7e8" d="M385.79.0002c-189.95 0-345 155.05-345 345 0 71.97 22.3 138.9 60.27 194.31l-16.23 41.46a20 20 0 0 0 11.33 25.91l18.26 7.15a20 20 0 0 0 11.19.76 20 20 0 0 0 8.78 7.06l20.6 8.06a20 20 0 0 0 6.9 1.25 20 20 0 0 0 5.65 2.89l19.96 4.76a20 20 0 0 0 14.17-2.22 343.42 343.42 0 0 0 91.08 40.71 111.12 111.12 0 0 0-10.26 21.89c-10.62-2.93-20.37 8.04-14 19.12-9.38 4.7-22.04 13.8-23.26 29.1-.42 5.27.74 9.98 3.55 14.5 1.3 2.09 6.35 9.12 16 9.77 12.31 1.06 23-6.52 28.38-14.23 3.69-5.28 6.23-11.13 8.15-16.01 2.37-.14 6.5-.63 8.82-.95 5.6 4.43 14.83 10.76 27.77 3.66 10.64 5.48 24.32-1.2 28-3.2 9.47 8.43 22.5 6.83 32.56-1.81 6.27 2.66 12.57 1.69 18.01-2.14 8.16 6.68 18.41 4.69 24.36-3.62.98 1.64 11.05 17.48 26.87 5.56 7.76 2.7 14.63-.22 17.9-1.82 12.22 11.74 33.77 13.89 40.4-10.95 2.53-9.5-6.3-19.2-17.85-14.32 12.67-22.97 15.79-39.37 13.05-49.47a344.7 344.7 0 0 0 47.7-25.14 20 20 0 0 0 17.05 2.04l22.48-7.62a20 20 0 0 0 11-9.23 20 20 0 0 0 13.76.85l22.48-7.61a20 20 0 0 0 13.54-20.37l-3.51-49.02c40.88-56.7 65.09-126.14 65.09-201.08 0-189.95-155.05-345-345-345"/>
  <g fill="none" clip-path="url(#a)">
    <circle cx="385.79" cy="345.0002" r="290" stroke="#5bcefa" stroke-width="40"/>
    <circle cx="385.79" cy="345.0002" r="290" stroke="#f5a9b8" stroke-width="25"/>
    <circle cx="385.79" cy="345.0002" r="290" stroke="#fff7e8" stroke-width="10"/>
  </g>
  <path fill="url(#b)" d="M377.09 113.7002c-27 0-54.54 4.5-80.41 11.25-5.06 1.12-28.68 7.87-30.93 11.8 21.93 5.06 40.49 24.18 44.42 46.11 1.13 7.31.57 14.62.57 21.93 16.87 1.69 34.86 5.62 45.54 20.8 7.3 10.13 7.88 20.8 6.75 33.18l15.18 1.12-46.1 54.55-24.75-11.25c-9.56-3.37-27.55-6.75-29.24 8.43-2.25 13.5 8.44 18.56 19.12 21.37-22.5 12.93-47.8-11.8-43.86-34.86 3.94-24.18 34.86-32.05 51.73-14.62 7.88 7.87 11.8 29.24 28.68 20.8 12.37-6.18 5.06-24.74-1.12-33.17-22.5-30.36-64.1-32.05-89.97-6.19-24.74 24.74-24.18 67.48 5.62 87.72 21.37 15.18 48.92 14.62 70.29.56l1.12 53.98c-.56 9.56-3.37 24.18 0 32.62a14.82 14.82 0 0 0 23.06 6.74c11.8-9.56 3.93-29.8 4.5-42.73 1.12-.56 7.87 1.69 8.43 2.25 3.94 2.81 10.68 16.3 14.62 20.8 9.56 10.69 25.3 17.43 39.36 10.69 9.56-3.94 10.12-16.87 0-21.37l-11.24-2.25c-8.44-2.81-12.37-13.5-17.44-20.24 11.8-7.87 15.75-19.12 12.94-33.18-3.38-17.99-17.43-28.67-34.87-33.17l44.43-53.98c13.5 10.68 20.8 26.99 26.99 42.73l9.56-1.68c6.18-.57 16.3.56 21.93 2.24 15.18 5.07 27.55 21.93 30.92 37.12 6.75-2.25 14.06-2.82 21.37-.57 9 2.25 18.56 12.94 21.37 21.37 6.75-12.93 8.43-28.68 9.56-42.73 4.5-52.3-1.13-109.09-30.93-152.95l-14.06-17.43c5.63-7.3 8.44-17.43 1.13-24.74-7.87-7.3-19.12-2.8-25.3 4.5-29.8-19.68-64.1-27.55-98.97-27.55m2.8 8.43c71.98 1.13 127.09 36.55 148.46 106.28 10.68 34.3 11.8 71.97 7.87 107.4-9.56-19.13-24.74-37.68-46.67-42.74-1.7-18-6.2-35.43-16.87-49.48-10.68-14.06-26.43-25.87-44.98-22.5-8.44-30.36-41.61-52.29-73.1-45.54-3.94-26.43-31.5-40.48-55.67-42.17 25.86-7.87 53.42-11.25 80.97-11.25zm111.9 18c7.88.56 7.88 10.68 2.26 15.18l-10.7-9c1.14-2.8 5.64-6.18 8.45-6.18zm-197.92 1.12c19.68.56 44.42 10.69 51.17 30.37l-25.87 20.24c0-19.68-10.12-38.8-25.3-50.6zm52.85 39.92 1.7 3.38c21.36-5.63 44.4.56 59.03 17.43l-35.98 41.6c-1.13-25.3-23.62-41.6-46.68-44.98zm65.8 28.12 3.37 6.18-30.37 36.55-9-1.12zm6.18 14.62 2.8 7.87 9-1.69-86.6 104.59c18.57-2.25 39.94 8.43 43.3 27.55 3.38 15.18-3.36 23.62-16.3 30.36 10.12 11.81 12.94 26.43 30.37 29.24 2.8.56 9.56-1.12 9.56 3.94 1.12 7.3-10.12 7.87-15.2 7.3-6.73-.55-16.3-7.3-20.8-12.92-5.05-5.63-10.67-19.68-18.55-20.8-2.25-.57-12.93-1.7-14.62-1.13-.56 0-1.12 0-1.12 1.12-.56 10.12 1.12 20.8 1.12 30.93-.56 6.18-2.25 15.74-10.68 12.93-7.87-2.81-4.5-27.55-3.94-34.86l-1.68-67.48c-15.75 10.12-10.12 7.31-15.75 10.12-34.86 16.87-77.03-3.93-77.6-44.42 0-50.04 65.8-72.53 95.03-30.92 3.38 4.5 11.25 19.68 3.38 23.05-8.44 3.94-10.12-5.62-12.94-10.68-27.55-46.1-89.96-8.44-66.91 34.86 12.93 24.18 44.42 28.68 61.85 6.75 0-1.13-21.36-5.63-25.3-9-3.94-3.94-2.25-11.8 3.37-12.93 3.94-.56 11.25 2.25 15.19 3.37l29.24 11.81 47.23-56.23zm22.5 5.62c4.49 1.13 6.74 2.25 10.67 5.62l-19.68 62.42a123.92 123.92 0 0 0-22.5-31.5zm17.98 11.25c2.25 1.68 7.3 8.43 9 11.24 9 14.06 12.37 29.8 12.37 46.1l9.56 3.95-1.12 25.3c-11.25-16.87-31.5-23.06-51.17-20.24zm39.93 65.22c9 4.5 16.87 12.93 22.5 21.93 5.05 7.87 10.1 18 10.1 26.99a33.18 33.17 0 0 0-33.73-10.12zm-147.9 43.3c-3.36-.57-6.74 0-10.67.56v36.55c10.12 1.12 23.62 1.68 31.49-6.19 9-8.43 2.25-22.49-7.31-27.55a26.71 26.71 0 0 0-13.5-3.37zm-1.11 7.3c7.3.57 14.06 2.82 18 9.57 5.6 13.5-11.25 15.74-20.81 14.62v-24.19z"/>
  <path fill="none" d="M158.25 453.2302c0 27.56 43.37 53.02 113.77 66.8s157.14 13.78 227.54 0 113.77-39.24 113.77-66.8"/>
  <path fill="#cd3b55" d="M230.26 477.4402q-.24-2.53-1.91-4.5-1.59-2-4.41-3.2-4.9-2.07-9.21-.08-4.3 1.93-6.58 7.29-2.43 5.71-.74 10.25 1.77 4.51 7.19 6.81 3.71 1.58 7.04.77 3.4-.78 6.08-3.82l-12.79-5.43 3.16-7.42 21.9 9.31-3.97 9.37q-2.72 3.3-6.8 5.38-4.03 2.11-9 2.36-4.98.25-10.17-1.95-6.12-2.6-9.83-7.3-3.62-4.74-4.3-10.66-.62-5.9 1.98-12.03 2.6-6.12 7.28-9.77 4.77-3.68 10.66-4.3 5.93-.68 12.05 1.92 7.42 3.15 10.96 8.9 3.6 5.77 2.55 12.83zm39.74 5.25-1.9 8.89 14.33 3.06-1.76 8.26-14.34-3.06-2.06 9.64 16.21 3.46-1.83 8.58-26.91-5.76 9.4-43.93 26.9 5.75-1.83 8.58zm46.4 7.62-1.02 9.03 14.57 1.63-.94 8.4-14.56-1.63-1.1 9.8 16.47 1.83-.97 8.72-27.35-3.06 4.99-44.65 27.35 3.06-.97 8.71zm46.74 31.22 14.32.48-.28 8.45-25.27-.86 1.52-44.9 10.94.37zm56.55 8.42q-6.33.33-11.79-2.34-5.39-2.67-8.79-7.75-3.34-5.15-3.68-11.73-.33-6.59 2.47-11.99 2.86-5.4 7.95-8.6 5.16-3.22 11.48-3.54 6.33-.33 11.72 2.35 5.46 2.66 8.73 7.75 3.34 5.09 3.67 11.67.34 6.58-2.45 12.04-2.8 5.4-7.9 8.61-5.09 3.21-11.41 3.53m-.51-9.97q5.37-.27 8.38-4.02 3.07-3.74 2.77-9.62-.3-5.95-3.74-9.3-3.38-3.41-8.75-3.14-5.43.28-8.51 3.97-3.02 3.67-2.71 9.68.3 5.95 3.68 9.36 3.44 3.35 8.88 3.07m85.08-.5-10.8 1.78-22.55-24.38 4.49 27.34-10.8 1.78-7.28-44.34 10.8-1.77 22.57 24.5-4.51-27.47 10.8-1.77zm41.6-43.93q-1.89-1.71-4.44-2.05-2.51-.42-5.42.59-5.02 1.74-6.89 6.11-1.9 4.31.01 9.82 2.03 5.86 6.33 8.1 4.34 2.16 9.9.23 3.8-1.32 5.74-4.15 2-2.86 1.94-6.9l-13.12 4.54-2.64-7.62 22.5-7.8 3.33 9.62q.19 4.27-1.44 8.56-1.57 4.27-5.1 7.8-3.51 3.51-8.84 5.36-6.29 2.17-12.19 1.17-5.86-1.09-10.34-5.02-4.41-3.96-6.6-10.25-2.17-6.29-1.14-12.13 1.06-5.92 5.02-10.34 3.93-4.48 10.22-6.66 7.62-2.63 14.1-.75 6.54 1.87 10.5 7.82z" aria-label="GEELONG" filter="url(#c)"/>
  <path fill="none" d="M-51.09 405.3802c0 85.09 83.27 163.7 218.44 206.25 135.17 42.54 301.7 42.54 436.88 0 135.17-42.54 218.44-121.16 218.44-206.25"/>
  <g fill="#cd3b55" aria-label="RAINBOW" filter="url(#d)">
    <path d="m141.68 603.02-4.51-34.4-4.38-1.71-11.08 28.3-18.26-7.15 29.35-74.96 30.64 12c5.913 2.314 10.53 5.31 13.85 8.99 3.393 3.707 5.41 7.78 6.05 12.22q1.0005 6.5505-1.59 13.17c-1.947 4.987-5.113 8.88-9.5 11.68-4.307 2.827-9.52 3.984-15.64 3.47l5.67 36.46ZM137.85 554l11.32 4.43c3.34 1.314 6.15 1.47 8.43.47q3.5295-1.449 5.28-5.94c1.113-2.846 1.137-5.423.07-7.73-1-2.273-3.17-4.066-6.51-5.38l-11.32-4.43Z"/>
    <path fill="#f77b28" d="m229.34 613.4-29.23-6.96-7.98 12.71-19.96-4.75 46.99-71.56 22.08 5.26 9.68 85.06-20.2-4.81Zm-1.4-15.9-2.88-30.97-16.42 26.38Z"/>
    <path fill="#f0ce64" d="m294.79 557.29-11.56 79.66-19.4-2.81 11.55-79.67Z"/>
    <path fill="#639c5c" d="m373.15 644.26-19.58-1.2-29.7-51.56-3.03 49.56-19.57-1.2 4.91-80.35 19.57 1.2 29.7 51.8 3.04-49.8 19.57 1.2Z"/>
    <path fill="#4f7fd4" d="M438.23 600.65c4.707.787 8.553 2.947 11.54 6.48q4.4895 5.2005 4.8 12.18c.307 6.72-1.817 12.174-6.37 16.36-4.48 4.107-10.92 6.35-19.32 6.73l-37.46 1.7-3.66-80.4 36.2-1.65c8.173-.373 14.637 1.207 19.39 4.74 4.827 3.534 7.387 8.507 7.68 14.92.213 4.734-.87 8.724-3.25 11.97-2.3 3.24-5.483 5.564-9.55 6.97m-29.4-5.32 12.83-.58c3.207-.146 5.62-.946 7.24-2.4 1.693-1.533 2.477-3.673 2.35-6.42-.127-2.746-1.1-4.806-2.92-6.18-1.747-1.373-4.223-1.986-7.43-1.84l-12.83.58Zm15.9 31.42c3.28-.146 5.767-.986 7.46-2.52 1.76-1.613 2.577-3.83 2.45-6.65-.133-2.826-1.19-5-3.17-6.52-1.907-1.52-4.5-2.203-7.78-2.05l-14.2.64.8 17.76Z"/>
    <path fill="#a77cc6" d="M508.67 634.74c-7.473 1.2-14.62.564-21.44-1.91q-10.1205-3.72-17.16-12.12c-4.627-5.686-7.56-12.416-8.8-20.19-1.247-7.773-.553-15.046 2.08-21.82q4.0605-10.17 12.51-16.86c5.707-4.48 12.297-7.316 19.77-8.51 7.473-1.2 14.583-.556 21.33 1.93 6.82 2.467 12.5 6.51 17.04 12.13 4.613 5.614 7.543 12.307 8.79 20.08 1.247 7.774.56 15.084-2.06 21.93-2.633 6.774-6.767 12.39-12.4 16.85-5.633 4.467-12.187 7.297-19.66 8.49m-2.83-17.66c6.34-1.02 11.06-3.943 14.16-8.77 3.173-4.846 4.203-10.743 3.09-17.69-1.127-7.02-3.947-12.296-8.46-15.83-4.453-3.62-9.85-4.923-16.19-3.91q-9.6195 1.5405-14.4 8.7c-3.107 4.754-4.093 10.677-2.96 17.77 1.127 7.02 3.913 12.34 8.36 15.96 4.513 3.534 9.98 4.79 16.4 3.77"/>
    <path d="m643.32 513.55 5.95 82.97-22.49 7.62-29.15-46.06 4.39 54.44-22.48 7.62-45.16-69.7 19.88-6.73 29.76 51.78-5.21-60.1 20.42-6.91 31.82 51.09-7.71-59.26Z"/>
  </g>
  <path fill="url(#e)" d="M505.14 662.4002c-2.53-.06-4.57 1.09-6.37 2.88a28 28 0 0 0-4.53 6.48 79.41 79.41 0 0 0-8.52 30.89v.04c-.12 1.17 0 2.82.1 4.47s.2 3.27-.12 4.63v.01l-.01.01c-.59 2.25-2.6 3.9-4.7 5.33-2.11 1.43-4.43 2.64-5.8 3.56l-.46.32-.5-.23a5.89 5.89 0 0 1-3.27-4.04 15.4 15.4 0 0 1-.19-5.35c.18-1.82.48-3.65.61-5.2.13-1.54.04-2.8-.29-3.42l-.02-.03-.01-.04c.06.14-.25-.23-.93-.5-.67-.25-1.6-.49-2.58-.67a26.23 26.23 0 0 0-4.78-.47c-1.39.11-3.49.92-5.46 1.73-.98.4-1.95.8-2.83 1.1a6.5 6.5 0 0 1-2.44.47c-1.74-.01-3.2-1.08-4.65-2s-2.86-1.69-3.81-1.69c-1.33 0-2.56.8-3.8 2.24a31.24 31.24 0 0 0-3.52 5.56c-1.1 2.09-2.13 4.22-3.22 5.94-1.1 1.71-2.22 3.16-3.92 3.41l-.07.01h-.07c-.67 0-1.48.04-2.3-.37-1.12-.55-1.65-1.67-2.12-2.94a31.2 31.2 0 0 1-1.14-4.32c-.32-1.53-.6-3.09-.9-4.4a12.23 12.23 0 0 0-.81-2.55c-1.16-.44-2-.52-2.52-.37-.6.17-1.01.57-1.44 1.27-.83 1.39-1.32 3.82-2.34 5.86-.46.98-2.19 4.28-4.22 7.27a21.7 21.7 0 0 1-3.18 3.86 5.4 5.4 0 0 1-1.72 1.1c-.62.21-1.43.2-2.04-.23l-.32-.23-.09-.38a22 22 0 0 1 0-9.5c.36-2.15 1.24-4.06 1.72-5.83a6.42 6.42 0 0 0-.2-4.64 5.67 5.67 0 0 0-1.78-.4c-.33.06-.38.12-.56.43-.35.62-.5 2.23-1.28 3.78-1.23 2.87-4.95 8.99-9.26 14.42a46.55 46.55 0 0 1-6.67 7.06c-2.22 1.8-4.4 3.02-6.54 2.57-2.73-.56-4.3-2.95-4.95-5.48a12.8 12.8 0 0 1 .33-7.58l.18-.37.56-1.07a187 187 0 0 1 4.2-7.34c.06-.1.08-.15.23-.3 1.3-1.36 3.72-2.73 6.08-4.23a29 29 0 0 0 4.09-3.08 24 24 0 0 0-2.4.12 77 77 0 0 0-4.38.57l-1.66.27.56-1.6c.35-.99.94-4.79 1.05-8.2.06-1.72.01-3.38-.18-4.6a6.1 6.1 0 0 0-.37-1.42c-.14-.3-.26-.38-.22-.36-1.74-.71-2.93-.66-3.87-.23a5.47 5.47 0 0 0-2.4 2.55c-1.31 2.46-1.96 6.13-2.57 8.81l-.98 6.98-.33.25s-1.68 1.44-3.75 1.25h.01c-.28-.02-.55.14-.77.73-.23.59-.25 1.5.17 2.46.15.28.5.64.9.86.42.24.89.33 1.12.3l.49-.06.34.34c.27.27.38.65.38.93s-.05.5-.12.7c-.14.43-.36.82-.64 1.26-.56.87-1.36 1.88-2.22 2.9a63 63 0 0 1-2.58 2.82 20.4 20.4 0 0 1-1.82 1.73l-.96.75-.55-1.1a9.1 9.1 0 0 0-9.32-4.99l-.43.06-.33-.27a1.51 1.51 0 0 1-.51-.81c-.08-.33-.02-.64.08-.89.19-.48.49-.77.83-1.08a14.4 14.4 0 0 1 2.65-1.75 35.6 35.6 0 0 1 4.17-1.9c.34-.12.51-.2.92-.23l.15-.01.15.04c.83.2 1.18.83 1.46 1.39.29.56.48 1.2.63 1.8.06.23.08.4.13.63.08-.13.16-.2.25-.36.43-.85.77-2.12.82-3.43a7.3 7.3 0 0 0-.74-3.68 4.22 4.22 0 0 0-2.74-2.15c-4.96-.26-8.94 2.74-12.55 6.87-3.64 4.16-6.76 9.35-9.99 12.97a59.5 59.5 0 0 1-5.2 5.16c-2.11 1.81-4.3 3.44-6.48 3.62h-.08a7 7 0 0 1-2.44-.53c-.98-.38-2.17-1.05-2.4-2.42l-.13-.82.79-.28c5-1.77 9.1-3.65 11.75-6.43s4.03-6.47 3.51-12.34v-.03c-.12-2.07-.78-2.88-1.9-3.39-1.12-.5-2.89-.55-4.94-.3-3.62.48-7.18 3.36-9.92 7.12-2.74 3.77-4.64 8.36-5.14 11.83l-.12.8-21.32 1.48 1.86-6.84.6-.12c4.03-.8 7.51-1.2 11.2-2.71a39.88 39.88 0 0 0 21.98-36.64c-.51-5.02-2.84-7.37-5.98-8.11-3.14-.75-7.27.28-11 2.78a51.03 51.03 0 0 0-13.62 18.34l-.01.02c-3 6.48-4.72 13.47-7.7 20.18l-.2.48-.52.1c-4.34.83-7.95-.05-11.59-1.05a6.05 6.05 0 0 0 2.9 3.56c1.96 1.1 4.57 1.65 6.86 1.84l1.21.1-2.36 8.37-.61.11a49.97 49.97 0 0 0-18.59 7.7c-5.76 4.02-10.1 9.3-10.59 15.55-.18 2.28.44 4.87 1.71 6.92 1.28 2.05 3.15 3.54 5.53 3.9h.01c8.23 1.25 13.71-2.83 17.98-8.93 4.26-6.1 7.07-14.18 9.47-20.41l.26-.66.71.02a77.8 77.8 0 0 0 21.37-2.22l.78-.19.35.73c1.69 3.48 3.25 5.62 6.92 6.6h.03c5.82 1.69 9.7-.44 13.36-3.98s6.84-8.53 10.76-12.16l.45-.41 9.6 3.5-.51 1a11.72 11.72 0 0 1-3.82 4.06 13.57 13.57 0 0 1-4.93 2.26c-.3.09-.6.15-.97.07a1.47 1.47 0 0 1-.96-.82c-.27-.73-.02-1.12.12-1.51.01-.06.03-.09.05-.14-2.72.46-4.16 2.25-4.23 3.94-.05.97.3 1.89 1.18 2.6.87.72 2.32 1.25 4.53 1.16 7.63-.26 14.62-4.46 20.66-9.16l1-.78.53 1.15c1.93 4.26 4.16 6.78 6.44 8.05a8.86 8.86 0 0 0 7.13.65c4.98-1.47 10.25-6.52 14.02-12.14l.86-1.28 4.4 7.03a4.63 4.63 0 0 0 4.04.96 9.79 9.79 0 0 0 4.17-2.52c2.76-2.55 5.23-6.41 7-8.84l1.53-2.12.27 2.6a17.8 17.8 0 0 0 2.3 7.3c1.28 2.11 3.05 3.62 5.52 4.05.58-.04 1.93-.9 3.37-2.52a56.4 56.4 0 0 0 4.56-6.26c1.5-2.31 2.9-4.64 4.05-6.43a33.4 33.4 0 0 1 1.51-2.23c.22-.28.42-.53.64-.73.2-.21.38-.44.91-.53l.3-.05 7 3.04-.03.7c-.26 4.98-.34 10.38 2.6 14.4 1.31 1.73 2.52 2.42 3.62 2.6a5 5 0 0 0 3.43-.97c2.38-1.55 4.73-4.73 6.45-7.17l1.01-1.42.72 1.59c1.09 2.4 2.44 3.71 3.95 4.37s3.22.67 5.07.2c3.7-.93 7.78-3.84 10.6-6.6l.76-.73.7.8c2.77 3.17 4.2 6.38 7.16 8.71 5.14 4.03 9.13 4.57 12.17 3 2.7-1.4 4.8-4.78 6.06-9.5-1.67.6-3.13 1.38-4.7 2.07-2.1.92-4.63 1.34-8.14-.05l-.08-.04c-1.5-.74-3.75-2.66-5.65-4.84a14.86 14.86 0 0 1-2.31-3.37c-.53-1.14-.8-2.4-.15-3.5l.02-.02a131.92 131.92 0 0 0 16.84-39.1c.32-2.18.52-5.21-.08-7.55a5.87 5.87 0 0 0-1.5-2.82 4.21 4.21 0 0 0-3.03-1.13m-1.48 7.31-.7 3.38c-2.12 10.15-4 20.35-10.25 29.28l-1.81-.68c1.06-9.95 3.01-21.92 10.36-29.5zm-182.47 6.8h.6l.27.2a4.76 4.76 0 0 1 1.81 2.84 8.2 8.2 0 0 1-.06 3.3c-.43 2.2-1.43 4.43-2.07 6.1v.01c-3.58 9.01-12.52 19.36-22.35 21.6l-1.8.4.64-1.73c2.18-5.9 4.4-13.01 7.81-19.19 3.4-6.18 8.04-11.48 15.02-13.5zm84.93 12.3a3.66 3.66 0 0 0-2.98 4.42v.04l.01.04a4.9 4.9 0 0 0 1.19 2.06c.62.65 1.36 1.03 1.77 1.05.34-.06.52-.14.6-.21a.9.9 0 0 0 .2-.46c.1-.5-.07-1.28.3-2.23l.01-.05.02-.05c1.05-2.08.96-3.27.65-3.84-.3-.55-.94-.81-1.77-.77m57.06 17.93.4.48c.34.4.3.71.3.94-.01.24-.05.44-.1.67-.12.45-.3.96-.53 1.55a56.7 56.7 0 0 1-4.02 7.97c-.33.55-.63 1-.91 1.36a4 4 0 0 1-.42.48c-.16.15-.28.34-.78.41l-.67.1-.33-.6c-1.53-2.65-1.13-5.7.22-8.13a10.44 10.44 0 0 1 6.23-5.07zm-131.9 1.18h1.15l.12.88c.37 3-.92 5.77-2.92 7.83s-4.73 3.48-7.5 3.84l-.85.11-.24-.82a2.65 2.65 0 0 1 .14-1.72c.2-.54.5-1.1.86-1.69a26.63 26.63 0 0 1 2.87-3.67c1.1-1.21 2.3-2.35 3.37-3.2.53-.44 1.04-.8 1.51-1.07.48-.27.9-.49 1.5-.49zm-48.62 22.84h1.84l.3.35c.38.46.3.78.27 1.02a3.5 3.5 0 0 1-.15.7 16.3 16.3 0 0 1-.66 1.74 79.4 79.4 0 0 1-2.29 4.74 151 151 0 0 1-2.63 4.85c-.8 1.41-1.4 2.45-1.8 2.98h-.01a27.48 27.48 0 0 1-7.21 6.52c-1.53.87-3.13 1.47-4.73 1.24-1.6-.24-2.99-1.46-3.73-3.53-.74-2.02-.14-4.28 1.09-6.46a26.75 26.75 0 0 1 5.35-6.39c4.43-4.01 10-7.32 14.3-7.76z"/>
</svg>
