<svg xmlns="http://www.w3.org/2000/svg" xml:space="preserve" viewBox="0 0 700 700">
  <defs>
    <linearGradient id="a" x1="15" x2="685" gradientUnits="userSpaceOnUse">
      <stop offset=".15125" stop-color="#cd3b55"/>
      <stop offset=".15125" stop-color="#f77b28"/>
      <stop offset=".26" stop-color="#f77b28"/>
      <stop offset=".26" stop-color="#f0ce64"/>
      <stop offset=".39" stop-color="#f0ce64"/>
      <stop offset=".39" stop-color="#639c5c"/>
      <stop offset=".5285" stop-color="#639c5c"/>
      <stop offset=".5285" stop-color="#4f7fd4"/>
      <stop offset=".6385" stop-color="#4f7fd4"/>
      <stop offset=".6385" stop-color="#a77cc6"/>
      <stop offset=".765" stop-color="#a77cc6"/>
      <stop offset=".765" stop-color="#7b2d21"/>
      <stop offset=".90375" stop-color="#7b2d21"/>
      <stop offset=".90375" stop-color="#3e3e3e"/>
    </linearGradient>
  </defs>
  <path fill="url(#a)" d="M332 0c-56 0-114 9-168 23-10 3-59 17-64 25a125 125 0 0 1 92 96c3 15 2 31 2 46 35 3 72 12 95 43 15 21 16 44 14 69l31 3-96 113-51-23c-20-7-58-14-61 17-5 29 17 39 40 45-47 27-100-25-92-73 8-50 73-66 108-30 16 16 24 61 60 43 25-13 10-51-3-69-47-63-133-67-187-13C0 367 1 456 64 498a129 129 0 0 0 146 1l2 113c-1 19-7 50 0 68a31 31 0 0 0 48 14c25-20 9-63 10-89 2-2 16 3 17 4 9 6 23 34 31 44 20 22 52 36 82 22 20-8 21-35 0-45l-24-4c-17-6-25-28-36-43 25-16 33-39 27-69-7-37-36-59-73-69l93-112c28 22 43 56 56 89l20-4a148 148 0 0 1 46 5c31 10 57 46 64 77a72 72 0 0 1 45-1c18 5 38 27 44 45 14-27 18-60 20-89 9-109-2-228-64-319l-30-36c12-16 18-37 3-52-17-15-40-6-53 9C476 16 404 0 332 0zm6 18c150 2 264 76 309 221 22 71 25 150 16 224-20-40-51-79-97-89-3-38-13-74-35-103-22-30-55-54-94-47-17-63-86-109-152-95-8-55-66-84-116-88a581 581 0 0 1 169-23Zm233 37c16 1 16 22 5 32l-23-19c3-6 12-13 18-13zm-412 2c41 2 92 23 106 64l-54 42c0-41-21-81-52-106zm110 84 3 7a121 121 0 0 1 123 36l-75 87c-2-53-49-87-97-94zm137 58 7 13-64 76-18-2zm13 31 5 16 19-4-180 218c38-4 83 18 90 58 7 31-7 49-34 63 21 25 27 55 63 61 6 1 20-2 20 8 3 15-21 16-31 15-14-1-34-15-44-27-10-11-22-41-38-43-5-1-27-3-31-2-1 0-2 0-2 2-1 21 2 43 2 64-1 13-5 33-22 27-17-5-10-57-8-72l-4-141c-33 21-21 15-33 21-72 35-160-8-161-92 0-105 137-151 198-65 7 10 23 41 7 48-18 9-21-11-27-22-58-96-188-17-140 73 27 50 93 59 129 14 0-3-44-12-53-19-8-8-4-25 7-27 9-1 24 5 32 7l61 25 98-117zm46 11a47 47 0 0 1 23 12l-41 130a258 258 0 0 0-47-66zm38 24c5 3 15 17 19 23 18 29 25 62 25 96l20 8-2 53c-23-35-66-48-107-42zm83 136a125 125 0 0 1 47 45c11 17 21 38 21 56a69 69 0 0 0-70-21zm-308 90c-7-1-14 0-22 1v76c21 2 49 4 65-13 19-17 5-47-15-57-8-5-18-7-28-7zm-2 15c15 1 29 6 37 20 12 28-23 33-43 30v-50z"/>
</svg>
