<svg xmlns="http://www.w3.org/2000/svg" xmlns:xlink="http://www.w3.org/1999/xlink" xml:space="preserve" viewBox="0 0 100 100">
  <defs>
    <linearGradient id="a" x1="18.836" x2="81.177" gradientUnits="userSpaceOnUse">
      <stop offset=".1512" stop-color="#cd3b55"/>
      <stop offset=".1512" stop-color="#f77b28"/>
      <stop offset=".26" stop-color="#f77b28"/>
      <stop offset=".26" stop-color="#f0ce64"/>
      <stop offset=".39" stop-color="#f0ce64"/>
      <stop offset=".39" stop-color="#639c5c"/>
      <stop offset=".5285" stop-color="#639c5c"/>
      <stop offset=".5285" stop-color="#4f7fd4"/>
      <stop offset=".6385" stop-color="#4f7fd4"/>
      <stop offset=".6385" stop-color="#a77cc6"/>
      <stop offset=".765" stop-color="#a77cc6"/>
      <stop offset=".765" stop-color="#7b2d21"/>
      <stop offset=".9038" stop-color="#7b2d21"/>
      <stop offset=".9038" stop-color="#3e3e3e"/>
    </linearGradient>
  </defs>
  <circle cx="50" cy="50" r="46.512" fill="#fff"/>
  <path fill="url(#a)" d="M48.28 17.488c-5.21 0-10.513.838-15.536 2.14-1.023.186-5.581 1.488-6.046 2.325a11.63 11.63 0 0 1 8.65 8.93c.187 1.396.094 2.791.094 4.187 3.256.372 6.79 1.116 8.837 4.093 1.395 1.953 1.488 4 1.302 6.418l2.977.186-8.93 10.605-4.837-2.232c-1.86-.652-5.303-1.303-5.675 1.674-.465 2.605 1.675 3.628 3.721 4.093-4.372 2.512-9.302-2.233-8.465-6.698.744-4.744 6.698-6.232 9.954-2.883 1.581 1.581 2.325 5.674 5.581 4.093 2.419-1.21 1.023-4.838-.186-6.419-4.372-5.953-12.465-6.233-17.488-1.21-4.745 4.745-4.652 13.024 1.116 16.93a12 12 0 0 0 13.581.187l.28 10.419c-.094 1.86-.652 4.65 0 6.325a2.884 2.884 0 0 0 4.464 1.302c2.233-1.86.745-5.767.838-8.279.279-.093 1.581.373 1.674.466.744.558 2.047 3.162 2.79 4 1.861 2.046 4.931 3.348 7.629 2.046 1.86-.744 1.953-3.256 0-4.093l-2.14-.465c-1.674-.558-2.418-2.605-3.349-3.907 2.233-1.488 2.977-3.721 2.512-6.419-.744-3.535-3.442-5.581-6.79-6.418l8.557-10.512c2.605 2.047 4.093 5.21 5.303 8.28l1.86-.28a13.8 13.8 0 0 1 4.186.372c2.977 1.023 5.396 4.28 6.047 7.256a6.7 6.7 0 0 1 4.093-.093c1.767.372 3.628 2.512 4.186 4.093 1.302-2.512 1.581-5.581 1.86-8.28.837-10.139-.279-21.115-6.046-29.673l-2.698-3.35c1.116-1.395 1.581-3.348.186-4.744-1.488-1.488-3.72-.558-4.93.838-5.768-3.814-12.372-5.303-19.163-5.303m.557 1.582c13.954.186 24.651 7.07 28.744 20.65 2.14 6.606 2.326 13.954 1.582 20.745-1.86-3.72-4.837-7.256-9.023-8.279-.373-3.442-1.21-6.884-3.35-9.581-2.046-2.698-5.116-5.024-8.65-4.372-1.675-5.86-8.093-10.14-14.233-8.838-.744-5.116-6.047-7.814-10.79-8.093a54 54 0 0 1 15.72-2.232m21.675 3.535c1.581.093 1.581 2.046.465 2.883l-2.047-1.767c.186-.465 1.117-1.116 1.582-1.116m-38.326.186c3.814.093 8.651 2.046 9.954 5.86l-5.024 3.907c0-3.814-1.953-7.535-4.93-9.767m10.233 7.72.372.652a11.26 11.26 0 0 1 11.442 3.349l-6.977 8.093c-.28-4.93-4.558-8.093-9.116-8.745ZM55.163 36l.651 1.21-5.86 7.07-1.768-.28zm1.21 2.79.557 1.49 1.768-.28L41.86 60.28c3.628-.466 7.721 1.58 8.466 5.301.65 2.977-.652 4.559-3.163 5.86 1.953 2.326 2.511 5.117 5.86 5.675.558.186 1.86-.186 1.86.837.187 1.396-1.953 1.489-2.976 1.396-1.302-.093-3.163-1.396-4-2.512-1.023-1.116-2.14-3.814-3.628-4-.465-.186-2.512-.372-2.79-.279-.187 0-.28 0-.28.28-.093 1.953.28 4 .28 5.953-.187 1.209-.466 3.07-2.14 2.511-1.489-.558-.837-5.302-.744-6.79l-.28-13.024c-3.07 1.954-1.953 1.396-3.07 1.954-6.79 3.256-14.976-.744-15.069-8.651 0-9.675 12.744-14.047 18.419-5.954.65.837 2.232 3.814.65 4.465-1.58.745-1.953-1.116-2.51-2.046-5.303-8.93-17.396-1.675-12.931 6.697 2.512 4.745 8.558 5.582 12 1.303 0-.186-4.186-1.023-4.93-1.675-.744-.837-.465-2.325.65-2.511.745-.186 2.14.372 2.978.65l5.674 2.233 9.116-10.883zm4.371 1.117a4.37 4.37 0 0 1 2.047 1.023l-3.814 12.093a24 24 0 0 0-4.372-6.046Zm3.442 2.14a16 16 0 0 1 4.186 11.162l1.86.744-.185 4.93c-2.233-3.348-6.14-4.464-9.954-4zM72 54.697a11.63 11.63 0 0 1 4.28 4.28c1.022 1.488 2.046 3.442 2.046 5.209a6.42 6.42 0 0 0-6.605-1.953ZM43.256 63.07c-.651-.093-1.303 0-2.047.093v7.163c1.954.186 4.558.279 6.14-1.21 1.767-1.674.372-4.372-1.396-5.395-.837-.372-1.674-.651-2.697-.651m-.186 1.488c1.395.093 2.697.465 3.535 1.768 1.023 2.604-2.233 3.07-4.093 2.883v-4.65z"/>
  <circle cx="50" cy="50" r="46.512" fill="none" stroke="#5bcefa" stroke-width="6.977"/>
  <circle cx="50" cy="50" r="46.512" fill="none" stroke="#f5a9b8" stroke-width="4.65133"/>
  <circle cx="50" cy="50" r="46.512" fill="none" stroke="#fff" stroke-width="1.74425"/>
</svg>
