<svg xmlns="http://www.w3.org/2000/svg" viewBox="0 0 100 100">
  <defs>
    <filter id="d" width="2.1138" height="1.42" x="0" y="0" color-interpolation-filters="sRGB">
      <feOffset dx=".725" dy=".725" result="offset"/>
      <feFlood flood-color="#fcc59b" flood-opacity="1" result="flood"/>
      <feComposite in="flood" in2="offset" operator="in" result="comp1"/>
      <feComposite in="SourceGraphic" in2="comp1" result="comp2"/>
    </filter>
    <filter id="c" width="1.0563" height="1.287" x="0" y="0" color-interpolation-filters="sRGB">
      <feOffset dx=".435" dy=".435" in="blur" result="offset"/>
      <feFlood flood-color="#f1a5ad" flood-opacity="1" result="flood"/>
      <feComposite in="flood" in2="offset" operator="in" result="comp1"/>
      <feComposite in="SourceGraphic" in2="comp1" result="comp2"/>
    </filter>
    <linearGradient id="b" x1="26.696" x2="73.305" gradientUnits="userSpaceOnUse">
      <stop offset=".1512" stop-color="#cd3b55"/>
      <stop offset=".1512" stop-color="#f77b28"/>
      <stop offset=".26" stop-color="#f77b28"/>
      <stop offset=".26" stop-color="#f0ce64"/>
      <stop offset=".39" stop-color="#f0ce64"/>
      <stop offset=".39" stop-color="#639c5c"/>
      <stop offset=".5285" stop-color="#639c5c"/>
      <stop offset=".5285" stop-color="#4f7fd4"/>
      <stop offset=".6385" stop-color="#4f7fd4"/>
      <stop offset=".6385" stop-color="#a77cc6"/>
      <stop offset=".765" stop-color="#a77cc6"/>
      <stop offset=".765" stop-color="#7b2d21"/>
      <stop offset=".9038" stop-color="#7b2d21"/>
      <stop offset=".9038" stop-color="#3e3e3e"/>
    </linearGradient>
    <clipPath id="a" clipPathUnits="userSpaceOnUse">
      <path fill-rule="evenodd" d="M.1483 0h99.7034v72.21H.1483Z"/>
    </clipPath>
  </defs>
  <path fill="#fff" d="M50 1.866c-27.5198 0-50 22.4802-50 50v.0277C.0351 61.994 3.1291 71.7678 8.7537 79.9788l-2.3715 6.0567c-.5834 1.4905.1517 3.1718 1.642 3.7556l2.6464 1.0364a2.9 2.9 0 0 0 1.6225.1092 2.9 2.9 0 0 0 1.2715 1.0221l2.9855 1.1697a2.9 2.9 0 0 0 .9983.18 2.9 2.9 0 0 0 .8212.4209l2.8926.6884a2.899 2.899 0 0 0 3.1258-1.2786l.0518-.0824.191.0456.0089.0951a2.899 2.899 0 0 0 2.215 2.5532l2.9276.6972a2.9 2.9 0 0 0 1.5444-.0591 2.9 2.9 0 0 0 .5826.2502l2.8116.407a2.9 2.9 0 0 0 1.318-.1562 2.9 2.9 0 0 0 1.5344.6026l2.8363.174a2.899 2.899 0 0 0 2.4233-1.142 2.899 2.899 0 0 0 2.3202 1.432l2.8377.1738a2.9 2.9 0 0 0 1.5144-.338 2.9 2.9 0 0 0 1.4422.317l5.4289-.2463-.0003.0003c1.6651-.0753 3.3458-.5598 4.6275-1.7346l.0033-.0028c.2747-.2525.5164-.5423.734-.8512.6078.4216 1.2656.771 1.9605 1.0264l.0119.0045c1.4487.5254 3.0278.6588 4.555.4136 1.5258-.244 2.983-.8643 4.1888-1.8198.9817-.7772 1.774-1.7774 2.3398-2.8943l.8503 1.3125c.7215 1.1135 2.1068 1.595 3.3633 1.169l3.258-1.1044a2.9 2.9 0 0 0 1.592-1.3375 2.9 2.9 0 0 0 1.9959.1231l3.2594-1.1045c1.2494-.4233 2.0553-1.6368 1.961-2.9526l-.5151-7.1807v-.0003c6.0505-8.4035 9.402-18.5398 9.4384-29.0359v-.0277c0-27.5198-22.4802-50-50-50"/>
  <g fill="none" clip-path="url(#a)">
    <circle cx="50.025" cy="51.891" r="42.05" stroke="#5bcefa" stroke-width="5.8"/>
    <circle cx="50.025" cy="51.891" r="42.05" stroke="#f5a9b8" stroke-width="3.625"/>
    <circle cx="50.025" cy="51.891" r="42.05" stroke="#fff7e8" stroke-width="1.45"/>
  </g>
  <path fill="url(#b)" d="M48.7391 18.3443c-3.913 0-7.9043.6521-11.6536 1.6304-.7333.1623-4.1565 1.1406-4.4826 1.7102 3.1783.7333 5.8681 3.5043 6.4377 6.6826.1637 1.0594.0826 2.1188.0826 3.1782 2.445.245 5.0522.8145 6.6 3.0145 1.058 1.4681 1.142 3.0145.9782 4.8087l2.2.1623-6.6811 7.9058-3.587-1.6304c-1.3855-.4884-3.9927-.9783-4.2377 1.2217-.326 1.9565 1.2232 2.6899 2.771 3.0971-3.2608 1.874-6.9275-1.7101-6.3565-5.0521.571-3.5044 5.0522-4.645 7.4971-2.1189 1.142 1.1406 1.7102 4.2377 4.1566 3.0145 1.7927-.8956.7333-3.5855-.1624-4.8072-3.2608-4.4-9.2898-4.645-13.039-.8971-3.5856 3.5855-3.5044 9.7797.8144 12.713 3.0971 2.2 7.0899 2.1188 10.187.0812l.1623 7.8231c-.0812 1.3856-.4884 3.5044 0 4.7276a2.1478 2.1478 0 0 0 3.342.9768c1.7102-1.3855.5696-4.3188.6522-6.1928.1623-.0811 1.1406.245 1.2217.3261.571.4073 1.5478 2.3623 2.1189 3.0145 1.3855 1.5493 3.6666 2.5261 5.7043 1.5493 1.3855-.571 1.4667-2.445 0-3.0971l-1.629-.326c-1.2232-.4073-1.7927-1.9566-2.5275-2.9334 1.7101-1.1406 2.2826-2.771 1.8754-4.8087-.4899-2.6073-2.5261-4.155-5.0537-4.8073l6.4392-7.8232c1.9565 1.5479 3.0144 3.9116 3.9116 6.1928l1.3855-.2435c.8956-.0826 2.3623.0812 3.1782.3247 2.2.7347 3.9928 3.1782 4.4812 5.3797.9782-.3261 2.0377-.4087 3.097-.0826 1.3044.326 2.69 1.8753 3.0972 3.097.9782-1.8739 1.2217-4.1565 1.3855-6.1927.6522-7.5797-.1638-15.8101-4.4826-22.1667l-2.0377-2.526c.816-1.058 1.2232-2.5261.1638-3.5855-1.1406-1.058-2.771-.4058-3.6667.6521-4.3188-2.8521-9.2899-3.9927-14.3435-3.9927m.4058 1.2217c10.4319.1638 18.4189 5.2971 21.516 15.403 1.5478 4.971 1.7101 10.4303 1.1405 15.5651-1.3855-2.7724-3.5855-5.4608-6.7637-6.1942-.2464-2.6087-.8986-5.1348-2.445-7.171-1.5478-2.0377-3.8304-3.7493-6.5188-3.2609-1.2232-4.4-6.0304-7.5782-10.5942-6.6-.571-3.8304-4.5652-5.8666-8.0681-6.1116 3.7478-1.1405 7.742-1.6304 11.7348-1.6304zm16.2174 2.6087c1.142.0812 1.142 1.5478.3275 2.2l-1.5507-1.3043c.1652-.4058.8174-.8957 1.2247-.8957zm-28.684.1623c2.8521.0812 6.4376 1.5493 7.4159 4.4015l-3.7493 2.9333c0-2.8522-1.4666-5.6232-3.6666-7.3333zm7.6594 5.7855.2464.4899c3.0956-.816 6.4347.0811 8.555 2.526l-5.2145 6.029c-.1637-3.6666-3.4232-6.029-6.7652-6.5188zm9.5362 4.0754.4884.8956-4.4014 5.2971-1.3044-.1623zm.8957 2.1188.4058 1.1406 1.3043-.245-12.5507 15.158c2.6913-.326 5.7884 1.2218 6.2753 3.9928.4899 2.2-.487 3.4232-2.3623 4.4 1.4667 1.7116 1.8754 3.8304 4.4015 4.2377.4058.0811 1.3855-.1623 1.3855.571.1623 1.058-1.4667 1.1406-2.203 1.058-.9753-.0797-2.3622-1.058-3.0144-1.8725-.7319-.816-1.5464-2.8522-2.6884-3.0145-.3261-.0826-1.874-.2464-2.1189-.1638-.0811 0-.1623 0-.1623.1624-.0811 1.4666.1623 3.0145.1623 4.4826-.0811.8956-.326 2.2811-1.5478 1.8739-1.1406-.4073-.6522-3.9928-.571-5.0522l-.2435-9.7797c-2.2826 1.4667-1.4666 1.0594-2.2826 1.4667-5.0522 2.4449-11.1638-.5696-11.2464-6.4377 0-7.2522 9.5363-10.5116 13.7725-4.4812.4899.6522 1.6304 2.8522.4899 3.3406-1.2232.571-1.4667-.8145-1.8754-1.5478-3.9928-6.6812-13.0377-1.2232-9.6971 5.0522 1.874 3.5043 6.4377 4.1565 8.9638.9782 0-.1637-3.0957-.816-3.6667-1.3043-.571-.571-.326-1.7102.4884-1.874.571-.0811 1.6304.3261 2.2014.4885l4.2377 1.7116 6.845-8.1493zm3.2608.8145c.6508.1638.9768.3261 1.5464.8145l-2.8522 9.0464a17.96 17.96 0 0 0-3.2608-4.5652zm2.6058 1.6305c.3261.2434 1.058 1.2217 1.3044 1.629 1.3043 2.0376 1.7927 4.3188 1.7927 6.6811l1.3855.5725-.1623 3.6666c-1.6304-2.4449-4.5652-3.342-7.416-2.9333Zm5.787 9.4521c1.3043.6522 2.445 1.874 3.2608 3.1783.732 1.1406 1.4638 2.6087 1.4638 3.9116a4.8087 4.8072 0 0 0-4.8884-1.4667Zm-21.4348 6.2754c-.487-.0826-.9768 0-1.5464.0812v5.297c1.4667.1624 3.4232.2435 4.5638-.897 1.3043-1.2218.326-3.2595-1.0594-3.9928a3.87 3.87 0 0 0-1.9566-.4884zm-.1609 1.058c1.058.0826 2.0377.4087 2.6087 1.387.8116 1.9564-1.6304 2.281-3.016 2.1188v-3.5058Z"/>
  <path fill="#cd3b55" d="M27.4731 71.0948q-.0348-.3669-.2769-.6525-.2306-.29-.6395-.464-.7105-.3002-1.3354-.0116-.6235.2798-.9541 1.0571-.3524.8279-.1073 1.4862.2567.654 1.0425.9875.538.229 1.0208.1116.493-.113.8816-.5539l-1.8545-.7874.4582-1.0759 3.1755 1.35-.5757 1.3586q-.3944.4785-.986.7801-.5843.306-1.305.3423-.722.0362-1.4746-.2828-.8874-.377-1.4254-1.0585-.5248-.6873-.6235-1.5457-.0898-.8555.2871-1.7444.377-.8874 1.0556-1.4166.6917-.5336 1.5457-.6235.86-.0986 1.7473.2784 1.076.4568 1.5892 1.2905.522.8367.3697 1.8603Zm5.7624.7612-.2756 1.2891 2.0779.4437-.2552 1.1977-2.0793-.4437-.2987 1.3978 2.3505.5017-.2654 1.2441-3.902-.8352 1.3631-6.3699 3.9005.8338-.2654 1.2441Zm6.728 1.1049-.1479 1.3094 2.1126.2363-.1363 1.218-2.1112-.2363-.1595 1.421 2.3881.2653-.1406 1.2644-3.9658-.4436.7236-6.4743 3.9657.4437-.1406 1.263Zm6.7772 4.5269 2.0764.0696-.0405 1.2253-3.6642-.1247.2204-6.5105 1.5863.0536Zm8.1998 1.2209q-.9179.0479-1.7096-.3393-.7815-.3871-1.2745-1.1237-.4843-.7467-.5336-1.7009-.0478-.9555.3581-1.7385.4148-.783 1.1528-1.247.7482-.467 1.6646-.5133.9179-.0478 1.6994.3407.7917.3858 1.2659 1.1238.4842.738.5321 1.6921.0493.9541-.3552 1.7458-.4061.783-1.1455 1.2485-.7382.4655-1.6545.5118m-.0739-1.4456q.7786-.0391 1.2151-.5829.445-.5423.4016-1.3949-.0435-.8628-.5423-1.3485-.49-.4944-1.2687-.4553-.7874.0406-1.234.5756-.4379.5322-.3929 1.4036.0434.8628.5336 1.3572.4988.4858 1.2876.4452m12.3366-.0725-1.566.2581-3.2698-3.5351.6511 3.9643-1.566.2581-1.0556-6.4293 1.566-.2567 3.2726 3.5525-.6539-3.9831 1.566-.2567Zm6.032-6.3699q-.274-.2479-.6438-.2972-.364-.0609-.7859.0855-.728.2524-.9991.886-.2756.625.0015 1.4239.2943.8498.9178 1.1745.6292.3132 1.4355.0333.551-.1913.8323-.6017.29-.4147.2813-1.0005l-1.9024.6583-.3828-1.1049 3.2625-1.131.4829 1.3949q.0275.6192-.2088 1.2412-.2277.6192-.7395 1.131-.509.509-1.2818.7772-.9121.3147-1.7676.1696-.8497-.158-1.4993-.7278-.6395-.5743-.957-1.4863-.3147-.912-.1653-1.7589.1537-.8584.7279-1.4992.5699-.6496 1.4819-.9658 1.1049-.3813 2.0445-.1087.9483.2712 1.5225 1.1339Z" aria-label="Geelong Rainbow" filter="url(#c)"/>
  <path fill="#cd3b55" d="m14.629 89.3039-.6539-4.988-.6351-.248-1.6066 4.1035-2.6477-1.0367 4.2557-10.8692 4.4428 1.74q1.2862.5031 2.0083 1.3035.738.8062.8773 1.7719.145.9498-.2306 1.9097-.4234 1.0846-1.3775 1.6936-.9367.6149-2.2678.5031l.8222 5.2867Zm-.5553-7.1079 1.6414.6423q.7264.2857 1.2223.0682.512-.2103.7656-.8613.2423-.6192.0102-1.1209-.2175-.4944-.944-.7801l-1.6414-.6423Z" filter="url(#d)"/>
  <path fill="#f77b28" d="m27.3397 90.809-4.2383-1.0092-1.1571 1.8429-2.8942-.6887 6.8136-10.3762 3.2016.7627 1.4036 12.3337-2.929-.6975Zm-.203-2.3055-.4176-4.4907-2.3808 3.8251Z" filter="url(#d)"/>
  <path fill="#f0ce64" d="m36.83 82.673-1.6762 11.5507-2.813-.4074 1.6747-11.5521Z" filter="url(#d)"/>
  <path fill="#639c5c" d="m48.1922 95.2837-2.8391-.174-4.3065-7.4762-.4393 7.1862-2.8377-.174.712-11.6508 2.8376.174 4.3065 7.511.4408-7.221 2.8377.174Z" filter="url(#d)"/>
  <path fill="#4f7fd4" d="M57.6288 88.9602q1.0237.1711 1.6733.9396.651.754.696 1.7661.0668 1.4616-.9237 2.3722-.9744.8933-2.8014.9759l-5.4316.2465-.5307-11.658 5.2489-.2392q1.7778-.0813 2.8116.6873 1.0499.7685 1.1136 2.1633.0464 1.0296-.4713 1.7357-.5002.7047-1.3847 1.0107m-4.263-.7714 1.8603-.0842q.6975-.0318 1.0498-.348.3684-.3335.3408-.9308-.0183-.3984-.4234-.8961-.38-.2988-1.0774-.2668l-1.8603.0841Zm2.3055 4.5558q.7134-.0318 1.0817-.3653.3828-.351.3552-.9643-.029-.6148-.4596-.9454-.4147-.3306-1.1281-.2972l-2.059.0928.116 2.5752Z" filter="url(#d)"/>
  <path fill="#a77cc6" d="M67.8426 93.9033q-1.6254.261-3.1088-.2769-1.4674-.5395-2.4882-1.7575-1.0063-1.2368-1.276-2.9275-.2711-1.6907.3016-3.1639.5887-1.4746 1.8139-2.4447 1.2413-.9744 2.8667-1.234 1.6255-.261 3.0928.2799 1.4834.5365 2.4708 1.7588 1.0035 1.221 1.2746 2.9116.1807 1.1272-.2987 3.1799-.5727 1.4732-1.798 2.4432-1.2253.9716-2.8507 1.2311m-.4104-2.5607q1.379-.2219 2.0532-1.2717.6902-1.054.4481-2.565-.2451-1.5268-1.2267-2.2954-.9686-.7873-2.3476-.5669-1.3949.2233-2.088 1.2615-.6756 1.0338-.4291 2.5766.245 1.5268 1.2121 2.3142.9817.7686 2.378.5467" filter="url(#d)"/>
  <path fill="#cd3b55" d="m87.3668 76.3307.8628 12.0307-3.2611 1.1049-4.2267-6.6787.6365 7.8938-3.2596 1.1049-6.5482-10.1065 2.8826-.9759 4.3152 7.5081-.7554-8.7145 2.9609-1.0019 4.6139 7.408-1.118-8.5927Z" filter="url(#d)"/>
</svg>
